<?xml version="1.0"?>

<svg width="200px" height="200px" viewBox="0 0 200 200" version="1.1" xmlns="http://www.w3.org/2000/svg" xmlns:xlink="http://www.w3.org/1999/xlink" xmlns:sketch="http://www.bohemiancoding.com/sketch/ns">
    
    <title>Logo-Rocka-black</title>
    <desc>Created with Sketch.</desc>
    <defs>
        <path id="path-1" d="M93.9142456,186.8911 C145.409754,186.8911 187.155649,145.1263 187.155649,93.6023 C187.155649,42.0794 145.409754,0.3124 93.9142456,0.3124 C42.4198363,0.3124 0.67394152,42.0794 0.67394152,93.6023 C0.67394152,145.1263 42.4198363,186.8911 93.9142456,186.8911 L93.9142456,186.8911 Z"></path>
        <path d="M83.789731,76.0749 L83.789731,28.3327 L106.305754,76.0749 L83.789731,76.0749 L83.789731,76.0749 Z M73.1726784,105.6121 L83.3719532,78.7776 L104.759977,78.7776 L73.1726784,105.6121 L73.1726784,105.6121 Z M69.112538,108.691 L28.4891462,108.691 L79.8703158,80.3825 L69.112538,108.691 L69.112538,108.691 Z M46.7724211,61.1182 L79.5327953,77.484 L26.1341988,106.9046 L46.7724211,61.1182 L46.7724211,61.1182 Z M25.0919532,78.0791 L42.5429708,63.9188 L24.6884678,103.5276 L25.0919532,78.0791 L25.0919532,78.0791 Z M6.12594152,60.6683 L42.2989006,60.6342 L23.7704561,75.669 L6.12594152,60.6683 L6.12594152,60.6683 Z M21.9729123,9.416 L22.3906901,45.0098 L5.07929825,56.045 L21.9729123,9.416 L21.9729123,9.416 Z M23.7693567,47.3374 L41.2797427,57.9315 L7.09782456,57.9634 L23.7693567,47.3374 L23.7693567,47.3374 Z M43.3675322,56.0384 L25.0930526,44.979 L24.6719766,9.2004 L43.3675322,56.0384 L43.3675322,56.0384 Z M81.0895673,25.6036 L81.0895673,75.2411 L48.3808655,58.9028 L81.0895673,25.6036 L81.0895673,25.6036 Z M79.9758596,22.8855 L46.6020117,56.8568 L25.5844912,4.1965 L79.9758596,22.8855 L79.9758596,22.8855 Z M83.3389708,21.1684 L22.4236725,0.2024 L0.815766082,59.6673 L22.3895906,78.0428 L21.8464795,111.3937 L70.6242339,111.3937 L110.039368,77.8063 L83.3389708,21.1684 L83.3389708,21.1684 Z" id="path-3"></path>
    </defs>
    <g id="Page-1" stroke="none" stroke-width="1" fill="none" fill-rule="evenodd" sketch:type="MSPage">
        <g id="Logo-Rocka-black" sketch:type="MSArtboardGroup">
            <g id="RockaLabs-black" sketch:type="MSLayerGroup" transform="translate(4.000000, 4.000000)">
                <g id="Group-3">
                    <mask id="mask-2" sketch:name="Clip 2" fill="white">
                        <use xlink:href="#path-1"></use>
                    </mask>
                    <g id="Clip-2"></g>
                    <path d="M0.615672515,0.198 L187.164444,0.198 L187.164444,186.978 L0.615672515,186.978 L0.615672515,0.198 Z" id="Fill-1" fill="#000105" sketch:type="MSShapeGroup" mask="url(#mask-2)"></path>
                </g>
                <g id="Group-6" transform="translate(41.777778, 35.200000)">
                    <mask id="mask-4" sketch:name="Clip 5" fill="white">
                        <use xlink:href="#path-3"></use>
                    </mask>
                    <g id="Clip-5"></g>
                    <path d="M0.791578947,0.11 L110.161404,0.11 L110.161404,111.518 L0.791578947,111.518 L0.791578947,0.11 Z" id="Fill-4" fill="#FFFFFF" sketch:type="MSShapeGroup" mask="url(#mask-4)"></path>
                </g>
            </g>
        </g>
    </g>
</svg>